<?xml version="1.0" encoding="utf-8"?>
<!-- Generator: Adobe Illustrator 24.0.1, SVG Export Plug-In . SVG Version: 6.00 Build 0)  -->
<svg version="1.1" id="Layer_1" xmlns="http://www.w3.org/2000/svg" xmlns:xlink="http://www.w3.org/1999/xlink" x="0px" y="0px"
	 viewBox="0 0 18 18" style="enable-background:new 0 0 18 18;" xml:space="preserve">
<style type="text/css">
	.st0{fill:#76787B;}
	.st1{fill-rule:evenodd;clip-rule:evenodd;fill:#FFFFFF;}
</style>
<rect class="st0" width="18" height="18"/>
<path class="st1" d="M9,3.347c-3.2,0-5.795,2.595-5.795,5.796c0,2.56,1.66,4.733,3.964,5.499c0.29,0.053,0.396-0.126,0.396-0.279
	c0-0.138-0.005-0.502-0.008-0.986c-1.612,0.35-1.952-0.777-1.952-0.777c-0.264-0.67-0.643-0.848-0.643-0.848
	C4.434,11.393,5,11.4,5,11.4c0.582,0.041,0.888,0.597,0.888,0.597c0.517,0.886,1.356,0.63,1.687,0.482
	c0.053-0.375,0.202-0.63,0.368-0.775c-1.287-0.146-2.64-0.643-2.64-2.864c0-0.633,0.226-1.15,0.597-1.555
	C5.839,7.138,5.64,6.549,5.956,5.751c0,0,0.487-0.156,1.594,0.594C8.012,6.217,8.507,6.152,9,6.15
	c0.492,0.002,0.988,0.067,1.451,0.195c1.106-0.75,1.592-0.594,1.592-0.594c0.316,0.798,0.117,1.387,0.058,1.534
	c0.371,0.405,0.596,0.922,0.596,1.555c0,2.226-1.355,2.716-2.646,2.86c0.208,0.179,0.393,0.533,0.393,1.073
	c0,0.775-0.007,1.4-0.007,1.59c0,0.155,0.104,0.335,0.399,0.279c2.301-0.768,3.96-2.939,3.96-5.498
	C14.796,5.942,12.201,3.347,9,3.347z"/>
</svg>
