<svg xmlns="http://www.w3.org/2000/svg" width="18" height="18" viewBox="0 0 18 18"><g id="Layer_2" data-name="Layer 2"><g id="Layer_1-2" data-name="Layer 1"><rect width="18" height="18" fill="#76787b"/><path d="M10.8,5.5a2.4,2.4,0,0,1,1.6.6,3.5,3.5,0,0,0,1.1-.3l.3-.2a1.5,1.5,0,0,1-.7,1l-.2.2h0A2.1,2.1,0,0,0,14,6.4h0l-.7.8-.3.2a5.3,5.3,0,0,1-.1,1.3,5.8,5.8,0,0,1-4,4.6,5.1,5.1,0,0,1-3,.1l-1.2-.4-.6-.3a.1.1,0,0,1-.1-.1c.2,0,.4.1.6,0h.6l1.3-.5.5-.3H6.4a2,2,0,0,1-1.3-1.4H6l-.7-.3a1.9,1.9,0,0,1-.9-1.7h.9l-.4-.3a2.4,2.4,0,0,1-.5-1.9.9.9,0,0,1,.3-.5h0l.2.2a1.7,1.7,0,0,0,.6.6A5.8,5.8,0,0,0,8,7.9h.9a3.4,3.4,0,0,1,0-1,2,2,0,0,1,1.2-1.3l.5-.2h.2" fill="#fff"/></g></g></svg>